<!-- (C) 2020 lonami.dev, all rights reserved -->
<svg viewBox="0 0 100 100" width="1000" height="1000"
    xmlns="http://www.w3.org/2000/svg" xmlns:xlink="http://www.w3.org/1999/xlink">
  <g id="cog">
    <circle cx="50" cy="50" r="41"/>
    <g id="cog-topright">
      <path id="dent" d="M45,10 l3,-5 h4 l3,5"/>
      <use xlink:href="#dent" transform="rotate(22.5 50 50)"/>
      <use xlink:href="#dent" transform="rotate(45 50 50)"/>
      <use xlink:href="#dent" transform="rotate(67.5 50 50)"/>
    </g>
    <use xlink:href="#cog-topright" transform="rotate(90 50 50)"/>
    <use xlink:href="#cog-topright" transform="rotate(180 50 50)"/>
    <use xlink:href="#cog-topright" transform="rotate(270 50 50)"/>
  </g>
  <use xlink:href="#cog" transform="translate(2.5,2.5) scale(0.95,0.95)" fill="#e3dbdb"/>
  <circle cx="50" cy="50" r="30" fill="#241c1c"/>
  <g id="hole">
    <rect x="14" y="45" width="10" height="10" rx="2" fill="#e3dbdb" transform="rotate(45 19 50)"/>
    <circle cx="19" cy="50" r="3" fill="#241c1c"/>
  </g>
  <use xlink:href="#hole" transform="rotate(135 50 50)"/>
  <use xlink:href="#hole" transform="rotate(-90 50 50)"/>
  <path d="M23,50 C25,45 65,25 70,32 70,40 55,75 50,77 45,75 45,60 43,56 39,52 25,53 23,50" fill="#e3dbdb"/>
</svg>
