<?xml version="1.0" encoding="UTF-8" standalone="no"?>
<!-- Created with Inkscape, cleaned-up by hand -->

<svg
   width="510"
   height="270"
   version="1.1"
   xmlns="http://www.w3.org/2000/svg"
   xmlns:svg="http://www.w3.org/2000/svg">
   <style>
      rect {
      fill: #ddeeff;
      stroke: #000000;
      }
      path {
      fill:none;
      stroke:#000000;
      marker-end:url(#Triangle);
      }
      text {
      font-size:12px;
      text-anchor: middle;
      dominant-baseline: middle;
      }
   </style>
   <defs>
      <marker
         id="Triangle"
         style="overflow:visible"
         refX="5"
         refY="0"
         orient="auto-start-reverse"
         viewBox="0 0 2.5 2.5">
         <path style="fill:context-stroke" d="M 5,0 -2.5,5 V -5 Z" />
      </marker>
   </defs>
   <rect style="fill:#ffffff" width="510" height="270" x="0" y="0" />
   <g>
      <rect width="149" height="29" x="180" y="0" />
      <text x="255" y="15">grammers-client</text>
      <path d="M 255,30 v 5 q 0 10 -10 10 H 85 q -10 0 -10 10 V 180" />
      <path d="M 255,30 v 5 q 0 10 -10 10 H 175 q -10 0 -10 10 V 120" />
      <path d="M 255,30 V 60" />
      <path d="M 255,30 v 5 q 0 10 10 10 H 425 q 10 0 10 10 V 180" />
   </g>
   <g>
      <rect width="149" height="29" x="180" y="60" />
      <text x="255" y="75">grammers-mtsender</text>
      <path d="M 255,90 v 5 q 0 10 -10 10 H 85 q -10 0 -10 10 V 180" />
      <path d="M 255,90 v 5 q 0 10 -10 10 H 175 q -10 0 -10 10 V 120" />
      <path d="M 255,90 v 5 q 0 10 10 10 H 335 q 10 0 10 10 V 120" />
      <path d="M 255,90 v 5 q 0 10 10 10 H 425 q 10 0 10 10 V 180" />
   </g>
   <g>
      <rect width="149" height="29" x="90" y="120" />
      <text x="165" y="135">grammers-session</text>
      <path d="M 90,135 H 85 q -10 0 -10 10 V 180" />
   </g>
   <g>
      <rect width="149" height="29" x="270" y="120" />
      <text x="345" y="135">grammers-mtproto</text>
      <path d="M 345,150 v 5 q 0 10 -10 10 H 85 q -10 0 -10 10 V 180" />
      <path d="M 345,150 v 5 q 0 10 10 10 H 425 q 10 0 10 10 V 180" />
   </g>
   <g>
      <rect width="149" height="29" x="0" y="180" />
      <text x="75" y="195">grammers-tl-types</text>
      <path d="M 75,210 V 240" />
      <path d="M 75,210 v 5 q 0 10 10 10 H 245 q 10 0 10 10 V 240" />
   </g>
   <g>
      <rect width="149" height="29" x="360" y="180" />
      <text x="435" y="195">grammers-crypto</text>
   </g>
   <g>
      <rect width="149" height="29" x="0" y="240" />
      <text x="75" y="255">grammers-tl-gen</text>
      <path d="M 150,255 H 180" />
   </g>
   <g>
      <rect width="149" height="29" x="180" y="240" />
      <text x="255" y="255">grammers-tl-parser</text>
   </g>
</svg>
