<svg height="16" viewBox="0 0 16 16" width="16" xmlns="http://www.w3.org/2000/svg"><g transform="translate(0 -1036.3622)"><ellipse cx="8" cy="1044.5884" fill="#ffeb3b" rx="7.8580317" ry="7.6318169"/><path d="m6.2064503 1036.6502a2.2755178 5.9051214 82.545344 0 0-5.23961846 3.0944 2.2755178 5.9051214 82.545344 0 0  6.42577886 1.3343 2.2755178 5.9051214 82.545344 0 0  5.2393563-3.0944 2.2755178 5.9051214 82.545344 0 0-6.4255167-1.3343zm.2359892.8811a1.3704478 4.1657823 82.202353 0 1 4.4730255.7122 1.3704478 4.1657823 82.202353 0 1-3.7588406 1.9543 1.3704478 4.1657823 82.202353 0 1-4.4730272-.7122 1.3704478 4.1657823 82.202353 0 1  3.7588423-1.9543z" fill="#00bcd4"/><path d="m7.9999345 1036.9567c-2.0768723 0-4.0686561.8015-5.539988 2.2251-.1060328.301.5823603.8624 1.0106317.8047 7.0811068-.9548 7.7697708-.6058 7.4282128-2.4846-.9221367-.358-1.9057838-.543-2.8988565-.5452z" fill="#ffeb3b" fill-rule="evenodd"/><path d="m4.7258196 1042.832c-.7671575 0-1.3890555.5285-1.3890771 1.1804.0004322.1384-.00259.5214.085814.4053.3167804-.4161.7200091-.7761 1.3032626-.7769.5829234.0005.9866463.3597 1.3035434.7755.08817.1157.084983-.266.085533-.4039-.0000216-.6519-.6219196-1.1804-1.389077-1.1804z" fill="#795548"/><path d="m11.274179 1042.832c-.767158 0-1.3890554.5285-1.389077 1.1804.0004322.1384-.00259.5214.085814.4053.316781-.4161.720009-.7761 1.303263-.7769.582924.0005.986646.3597 1.303544.7755.08817.1157.08498-.266.08553-.4039-.000022-.6519-.621919-1.1804-1.389077-1.1804z" fill="#795548"/><path d="m7.9999993 1049.4565c1.5105528 0 2.7350867-.5982 2.7351287-1.336-.000864-.1566.0051-.5903-.168971-.4588-.6237478.4711-1.417717.8784-2.5661577.8793-1.1477909 0-1.9427326-.4071-2.5667108-.8777-.1736083-.131-.1673346.3012-.1684179.4572.0000432.7378 1.2245759 1.336 2.7351287 1.336z" fill="#795548"/></g></svg>