<?xml version="1.0" encoding="UTF-8" standalone="no"?>
<!-- Created with Inkscape (http://www.inkscape.org/) -->

<svg
   xmlns:dc="http://purl.org/dc/elements/1.1/"
   xmlns:cc="http://creativecommons.org/ns#"
   xmlns:rdf="http://www.w3.org/1999/02/22-rdf-syntax-ns#"
   xmlns:svg="http://www.w3.org/2000/svg"
   xmlns="http://www.w3.org/2000/svg"
   xmlns:sodipodi="http://sodipodi.sourceforge.net/DTD/sodipodi-0.dtd"
   xmlns:inkscape="http://www.inkscape.org/namespaces/inkscape"
   width="256"
   height="256"
   viewBox="0 0 256 256"
   id="svg2"
   version="1.1"
   inkscape:version="0.92.3 (2405546, 2018-03-11)"
   sodipodi:docname="hack.svg">
  <defs
     id="defs4" />
  <sodipodi:namedview
     id="base"
     pagecolor="#ffffff"
     bordercolor="#666666"
     borderopacity="1.0"
     inkscape:pageopacity="0.0"
     inkscape:pageshadow="2"
     inkscape:zoom="1.41"
     inkscape:cx="128.6248"
     inkscape:cy="69.090864"
     inkscape:document-units="px"
     inkscape:current-layer="layer1"
     showgrid="false"
     inkscape:window-width="1366"
     inkscape:window-height="739"
     inkscape:window-x="0"
     inkscape:window-y="0"
     inkscape:window-maximized="1"
     units="px" />
  <metadata
     id="metadata7">
    <rdf:RDF>
      <cc:Work
         rdf:about="">
        <dc:format>image/svg+xml</dc:format>
        <dc:type
           rdf:resource="http://purl.org/dc/dcmitype/StillImage" />
        <dc:title />
      </cc:Work>
    </rdf:RDF>
  </metadata>
  <g
     inkscape:label="Layer 1"
     inkscape:groupmode="layer"
     id="layer1"
     transform="translate(0,-796.36216)">
    <path
       inkscape:connector-curvature="0"
       style="fill:#552200;stroke:#ffffff;stroke-width:2;stroke-linecap:butt;stroke-linejoin:miter;stroke-miterlimit:4;stroke-dasharray:none;stroke-opacity:1"
       d="m 87.662423,809.14069 -2.42387,4.20022 a 72.552169,72.552169 0 0 0 -22.657836,6.15739 l -4.283337,-2.47199 -8.490856,4.90171 v 5.01546 a 72.552169,72.552169 0 0 0 -16.275828,16.43917 h -5.178809 l -4.901709,8.49086 2.64701,4.58523 a 72.552169,72.552169 0 0 0 -5.762169,22.02488 l -4.691698,2.70972 v 9.80487 l 4.789411,2.76515 a 72.552169,72.552169 0 0 0 5.948846,21.5421 l -2.886189,4.99949 4.903167,8.49078 h 5.940097 a 72.552169,72.552169 0 0 0 15.51454,15.34247 v 6.11219 l 8.489392,4.9017 5.374236,-3.102 a 72.552169,72.552169 0 0 0 20.831901,5.5142 l 3.113701,5.3947 h 9.80488 l 3.096187,-5.364 a 72.552169,72.552169 0 0 0 20.80128,-5.5449 l 5.35236,3.0904 8.49085,-4.9032 v -6.16763 a 72.552169,72.552169 0 0 0 15.41974,-15.28558 h 6.03489 l 4.90171,-8.49085 -2.96202,-5.1321 a 72.552169,72.552169 0 0 0 5.85113,-21.27089 l 5.00963,-2.89203 v -9.80487 l -4.79087,-2.7666 a 72.552169,72.552169 0 0 0 -5.73883,-21.90529 l 2.67617,-4.63482 -4.9017,-8.49085 h -5.24298 a 72.552169,72.552169 0 0 0 -16.21166,-16.35605 v -5.09859 l -8.49086,-4.90317 -4.34313,2.507 a 72.552169,72.552169 0 0 0 -22.466777,-6.09905 l -2.48512,-4.30523 z m 4.81129,13.10672 a 63.284557,63.284557 0 0 1 63.284687,63.28469 63.284557,63.284557 0 0 1 -63.284687,63.28466 63.284557,63.284557 0 0 1 -63.2847,-63.28466 63.284557,63.284557 0 0 1 63.2847,-63.28469 z"
       id="path834" />
    <path
       id="path940"
       d="m 204.76043,838.14699 -1.16312,2.01553 a 34.815,34.815 0 0 0 -10.87263,2.95469 l -2.0554,-1.18622 -4.07444,2.35215 v 2.40673 a 34.815,34.815 0 0 0 -7.81015,7.88853 h -2.48511 l -2.35214,4.07443 1.2702,2.20028 a 34.815,34.815 0 0 0 -2.76505,10.5689 l -2.25136,1.30028 v 4.70498 l 2.29825,1.32689 a 34.815,34.815 0 0 0 2.85462,10.33723 l -1.38496,2.39907 2.35283,4.07439 h 2.85043 a 34.815,34.815 0 0 0 7.44483,7.36226 v 2.93301 l 4.07373,2.35214 2.57889,-1.48853 a 34.815,34.815 0 0 0 9.99643,2.64605 l 1.49415,2.5887 h 4.70498 l 1.48575,-2.57396 a 34.815,34.815 0 0 0 9.98173,-2.66079 l 2.56839,1.48296 4.07444,-2.35285 v -2.95962 a 34.815,34.815 0 0 0 7.39933,-7.33496 h 2.89592 l 2.35214,-4.07443 -1.42136,-2.4627 a 34.815,34.815 0 0 0 2.80774,-10.20708 l 2.40393,-1.38778 v -4.70498 l -2.29896,-1.32758 a 34.815,34.815 0 0 0 -2.75384,-10.51151 l 1.28419,-2.22407 -2.35214,-4.07444 h -2.5159 a 34.815,34.815 0 0 0 -7.77936,-7.84864 v -2.44661 l -4.07444,-2.35284 -2.0841,1.203 a 34.815,34.815 0 0 0 -10.78095,-2.92669 l -1.19251,-2.06592 z m 2.30875,6.28942 a 30.367829,30.367829 0 0 1 30.36789,30.36789 30.367829,30.367829 0 0 1 -30.36789,30.36788 30.367829,30.367829 0 0 1 -30.36789,-30.36788 30.367829,30.367829 0 0 1 30.36789,-30.36789 z"
       style="fill:#552200;stroke:#ffffff;stroke-width:2;stroke-linecap:butt;stroke-linejoin:miter;stroke-miterlimit:4;stroke-dasharray:none;stroke-opacity:1"
       inkscape:connector-curvature="0" />
    <path
       inkscape:connector-curvature="0"
       style="fill:#552200;stroke:#ffffff;stroke-width:2;stroke-linecap:butt;stroke-linejoin:miter;stroke-miterlimit:4;stroke-dasharray:none;stroke-opacity:1"
       d="m 167.03782,945.46426 -1.99444,2.39496 a 46.628221,46.628221 0 0 0 -15.02289,1.42147 l -2.44232,-2.034 -5.91345,2.17567 -0.54854,3.17637 a 46.628221,46.628221 0 0 0 -12.1056,8.63103 l -3.2798,-0.5664 -4.03294,4.84125 1.1749,3.19339 a 46.628221,46.628221 0 0 0 -6.05809,13.3184 l -3.26765,1.20296 -1.07235,6.20957 2.73077,2.27494 a 46.628221,46.628221 0 0 0 1.41141,14.29353 l -2.37463,2.8507 2.17661,5.9134 3.76194,0.6497 a 46.628221,46.628221 0 0 0 8.14751,11.4135 l -0.66848,3.8709 4.84034,4.0327 3.74283,-1.3768 a 46.628221,46.628221 0 0 0 12.59001,5.7705 l 1.38194,3.757 6.20952,1.0724 2.5475,-3.0583 a 46.628221,46.628221 0 0 0 13.78011,-1.2367 l 3.05173,2.5426 5.91361,-2.1766 0.67453,-3.906 a 46.628221,46.628221 0 0 0 11.43727,-7.9942 l 3.82197,0.66 4.03293,-4.8412 -1.31458,-3.5742 a 46.628221,46.628221 0 0 0 6.03195,-12.8311 l 3.48896,-1.2837 1.07235,-6.2095 -2.73153,-2.27611 a 46.628221,46.628221 0 0 0 -1.23871,-14.50053 l 2.20176,-2.6426 -2.17568,-5.91345 -3.32043,-0.57342 a 46.628221,46.628221 0 0 0 -8.47819,-12.13152 l 0.55763,-3.22899 -4.8411,-4.03385 -3.02474,1.11268 a 46.628221,46.628221 0 0 0 -13.56142,-6.31975 l -1.103,-2.99835 z m 1.61356,8.82685 a 40.672062,40.672062 0 0 1 33.15752,47.00029 40.672062,40.672062 0 0 1 -47.00026,33.1575 40.672062,40.672062 0 0 1 -33.15753,-47.00027 40.672062,40.672062 0 0 1 47.00027,-33.15752 z"
       id="path942" />
  </g>
</svg>
